# xmcd CD database file
#
# Track frame offsets:
#	150
#	8107
#	21177
#	33305
#	45640
#	55710
#	68380
#	76625
#	89307
#	97580
#	107257
#	115812
#	128130
#	136155
#	144235
#	152510
#	163920
#	191202
#	201095
#	212257
#	222190
#	235117
#	248440
#	259062
#
# Disc length: 3603 seconds
#
# Revision: 0
# Processed by: cddbd v1.4PL0 Copyright (c) Steve Scherf et al.
# Submitted via: CDex 1.51
#
DISCID=230e1118
DTITLE=Sheb Wooley - Rawhide - How the West Was Won
DYEAR=1900
DGENRE=Country
TTITLE0=Rawhide
TTITLE1=Mirage
TTITLE2=The Goodnight-Loving Trail
TTITLE3=The Shifting Whispering Sands
TTITLE4=Indian Maiden
TTITLE5=The Story of Billy Bardell
TTITLE6=Enchantment of the Prairie
TTITLE7=The Lonely Man
TTITLE8=The Wayward Wind
TTITLE9=Bars Across the Windows
TTITLE10=Cattle Call
TTITLE11=Searching
TTITLE12=Rawhide
TTITLE13=How the West Was Won
TTITLE14=Gotta Pull Up Stakes (and Move on West)
TTITLE15=High Lonesome
TTITLE16=Wagonmaster's Diary - Buffalo Stampede
TTITLE17=Rosie's The Queen of California
TTITLE18=Building a Railroad
TTITLE19=Plowin' in New Ground
TTITLE20=Papa's Old Fiddle
TTITLE21=Silver Target
TTITLE22=I Belong
TTITLE23=Big Land
EXTD=
EXTT0=
EXTT1=
EXTT2=
EXTT3=
EXTT4=
EXTT5=
EXTT6=
EXTT7=
EXTT8=
EXTT9=
EXTT10=
EXTT11=
EXTT12=
EXTT13=
EXTT14=
EXTT15=
EXTT16=
EXTT17=
EXTT18=
EXTT19=
EXTT20=
EXTT21=
EXTT22=
EXTT23=
PLAYORDER=
